<svg width="22" height="29" viewBox="0 0 22 29" fill="none" xmlns="http://www.w3.org/2000/svg">
<path d="M11.3428 0.583008C14.1192 0.583056 16.7818 1.6863 18.7451 3.64941C20.7085 5.61279 21.8115 8.2761 21.8115 11.0527C21.8114 17.2446 12.3149 28.2825 11.9111 28.7461C11.8397 28.8259 11.7521 28.8898 11.6543 28.9336C11.5564 28.9773 11.45 29 11.3428 29C11.2355 29 11.1292 28.9774 11.0312 28.9336C10.9334 28.8899 10.8459 28.8259 10.7744 28.7461C10.3706 28.2825 0.87315 17.2446 0.873047 11.0527C0.873047 8.2761 1.97608 5.61279 3.93945 3.64941C5.90283 1.68606 8.56616 0.583008 11.3428 0.583008Z" fill="#FF7200"/>
<circle cx="11.3441" cy="10.2643" r="5.2484" fill="white"/>
</svg>
