<svg width="25" height="25" viewBox="0 0 25 25" fill="none" xmlns="http://www.w3.org/2000/svg">
<path d="M17.3857 0.693359C18.485 0.693555 19.3759 1.58429 19.376 2.68359V6.69434H22.3184C23.4178 6.69434 24.3095 7.58519 24.3096 8.68457V22.5791C24.3096 23.6786 23.4178 24.5703 22.3184 24.5703H1.99707C0.897589 24.5703 0.00585938 23.6786 0.00585938 22.5791V8.68457C0.00597431 7.58519 0.89766 6.69434 1.99707 6.69434H4.85742V2.68359C4.85749 1.58417 5.74919 0.693359 6.84863 0.693359H17.3857Z" fill="#FF7200"/>
<rect x="13.082" y="3.27344" width="6.11915" height="1.85233" transform="rotate(90 13.082 3.27344)" fill="white"/>
<rect x="15.2148" y="7.25977" width="6.11915" height="1.85233" transform="rotate(-180 15.2148 7.25977)" fill="white"/>
<rect x="3.60352" y="13.9102" width="4.72754" height="2.68835" rx="0.497697" fill="white"/>
<rect x="15.9805" y="13.9102" width="4.72754" height="2.68835" rx="0.497697" fill="white"/>
<rect x="9.79492" y="13.9102" width="4.72754" height="2.68835" rx="0.497697" fill="white"/>
<rect x="3.60352" y="18.7168" width="4.72754" height="2.68835" rx="0.497697" fill="white"/>
<rect x="15.9805" y="18.7168" width="4.72754" height="2.68835" rx="0.497697" fill="white"/>
<rect x="9.79492" y="18.7168" width="4.72754" height="2.68835" rx="0.497697" fill="white"/>
</svg>
