<svg width="17" height="17" viewBox="0 0 17 17" fill="none" xmlns="http://www.w3.org/2000/svg">
<path d="M12.418 12.6485C11.2616 13.5141 9.85362 13.9936 8.39987 14.017C3.66476 14.017 0.958984 8.70234 0.958984 8.70234C1.80041 7.16236 2.96744 5.8169 4.38179 4.75623M6.97934 3.54715C7.44496 3.44011 7.92167 3.38661 8.39987 3.38771C13.135 3.38771 15.8408 8.70234 15.8408 8.70234C15.4301 9.45676 14.9404 10.167 14.3796 10.8216M9.83393 10.1107C9.64815 10.3065 9.42411 10.4636 9.17518 10.5725C8.92625 10.6814 8.65753 10.74 8.38505 10.7447C8.11257 10.7495 7.84192 10.7002 7.58923 10.6C7.33654 10.4998 7.107 10.3506 6.9143 10.1613C6.72159 9.97206 6.56968 9.74663 6.46761 9.49847C6.36555 9.25031 6.31543 8.9845 6.32023 8.7169C6.32504 8.4493 6.38468 8.18539 6.4956 7.94092C6.60651 7.69645 6.76643 7.47642 6.96581 7.29397" stroke="black" stroke-width="1.32866" stroke-linecap="round" stroke-linejoin="round"/>
<path d="M0.958984 1.39478L15.8408 16.01" stroke="black" stroke-width="1.32866" stroke-linecap="round" stroke-linejoin="round"/>
</svg>
