<svg width="47" height="46" viewBox="0 0 47 46" fill="none" xmlns="http://www.w3.org/2000/svg">
<circle cx="23.4885" cy="23.0554" r="22.4574" fill="white" stroke="#D5D5D5" stroke-width="0.847448"/>
<path d="M34.7071 20.8155H33.7862V20.7697H23.4895V25.346H29.9535C29.0097 28.0117 26.4756 29.9223 23.4895 29.9223C19.6969 29.9223 16.6251 26.8505 16.6251 23.0579C16.6251 19.2653 19.6969 16.1935 23.4895 16.1935C25.24 16.1935 26.8302 16.8513 28.0429 17.9325L31.2806 14.6947C29.2385 12.7899 26.5042 11.6172 23.4895 11.6172C17.1685 11.6172 12.0488 16.7369 12.0488 23.0579C12.0488 29.3789 17.1685 34.4986 23.4895 34.4986C29.8105 34.4986 34.9302 29.3732 34.9302 23.0579C34.9302 22.2914 34.8501 21.542 34.7071 20.8155Z" fill="#FAB409"/>
<path d="M13.3711 17.7322L17.1294 20.4895C18.1476 17.9725 20.6073 16.1935 23.4904 16.1935C25.2408 16.1935 26.8311 16.8513 28.0438 17.9325L31.2815 14.6947C29.2393 12.7899 26.505 11.6172 23.4904 11.6172C19.0972 11.6172 15.2874 14.0998 13.3711 17.7322Z" fill="#E73B2F"/>
<path d="M23.4908 34.5036C26.4482 34.5036 29.1311 33.371 31.1618 31.5347L27.6209 28.5373C26.4711 29.4068 25.0468 29.9273 23.4908 29.9273C20.5162 29.9273 17.9878 28.0282 17.0383 25.3796L13.3086 28.257C15.202 31.9638 19.0461 34.5036 23.4908 34.5036Z" fill="#2E9E49"/>
<path d="M34.7078 20.8168H33.7869V20.771H23.4902V25.3473H29.9542C29.5023 26.6286 28.6786 27.7327 27.6146 28.5335L31.1555 31.531C30.9038 31.7598 34.9252 28.7795 34.9252 23.0591C34.9252 22.2926 34.8451 21.5432 34.7021 20.8168H34.7078Z" fill="#3A7AF2"/>
</svg>
