<svg width="275" height="194" viewBox="0 0 275 194" fill="none" xmlns="http://www.w3.org/2000/svg">
<g filter="url(#filter0_d_89_3724)">
<rect x="2.41992" y="0.858398" width="270.58" height="188.931" rx="5" fill="white"/>
<rect x="2.66992" y="1.1084" width="270.08" height="188.431" rx="4.75" stroke="#D5D5D5" stroke-width="0.5"/>
</g>
<path d="M184.205 13.7773V17.4824H186.037V18.3848H184.205V22.7461H183.139V13.7773H184.205ZM184.766 24.7695V25.6719H176.604V21.8164H177.656V24.7695H184.766ZM178.121 14.6387C179.939 14.6387 181.307 15.8691 181.32 17.6328C181.307 19.3965 179.939 20.627 178.121 20.627C176.303 20.627 174.922 19.3965 174.936 17.6328C174.922 15.8691 176.303 14.6387 178.121 14.6387ZM178.121 15.582C176.918 15.582 175.975 16.4297 175.988 17.6328C175.975 18.8359 176.918 19.6836 178.121 19.6836C179.352 19.6836 180.268 18.8359 180.268 17.6328C180.268 16.4297 179.352 15.582 178.121 15.582ZM193.543 15.1309V15.7598C193.529 16.7168 193.529 18.3301 193.188 20.5859L192.107 20.4902C192.436 18.4531 192.463 16.9766 192.463 16.0059H187.363V15.1309H193.543ZM190.357 18.6035V22.2949C191.704 22.2471 193.085 22.1582 194.35 22.0078L194.404 22.8145C191.848 23.2109 188.99 23.2656 186.816 23.252L186.68 22.3633C187.479 22.3564 188.368 22.3496 189.305 22.3223V18.6035H190.357ZM196.182 13.7773V18.8633H198.15V19.793H196.182V25.9316H195.115V13.7773H196.182Z" fill="#8C8C8C"/>
<path d="M178.053 89.5156C179.078 89.5088 179.953 89.8916 180.514 90.541H183.699V88.7773H184.779V95.9824H183.699V94.2461H180.527C179.953 94.8955 179.078 95.2783 178.053 95.2715C176.234 95.2852 174.895 94.0957 174.895 92.4004C174.895 90.6914 176.234 89.502 178.053 89.5156ZM178.053 90.4453C176.809 90.4316 175.92 91.252 175.92 92.4004C175.92 93.5352 176.809 94.3555 178.053 94.3555C179.256 94.3555 180.158 93.5352 180.158 92.4004C180.158 91.252 179.256 90.4316 178.053 90.4453ZM180.746 96.2695C183.262 96.2695 184.82 97.1172 184.82 98.5801C184.82 100.057 183.262 100.904 180.746 100.904C178.217 100.904 176.672 100.057 176.672 98.5801C176.672 97.1172 178.217 96.2695 180.746 96.2695ZM180.746 97.1035C178.887 97.1035 177.725 97.6641 177.725 98.5801C177.725 99.4961 178.887 100.043 180.746 100.043C182.619 100.043 183.768 99.4961 183.768 98.5801C183.768 97.6641 182.619 97.1035 180.746 97.1035ZM181.033 91.416C181.136 91.7168 181.197 92.0449 181.197 92.4004C181.197 92.7422 181.136 93.0635 181.033 93.3574H183.699V91.416H181.033ZM190.863 90.7461C190.863 92.4004 192.121 93.918 193.885 94.5195L193.297 95.3672C191.95 94.875 190.891 93.8701 190.357 92.6055C189.838 94.0342 188.758 95.1621 187.336 95.709L186.762 94.8477C188.58 94.1641 189.797 92.5371 189.811 90.6641V89.4062H190.863V90.7461ZM196.305 88.7773V91.9492H198.137V92.8516H196.305V96.1738H195.238V88.7773H196.305ZM192.408 96.4883C194.91 96.4883 196.414 97.2949 196.414 98.6895C196.414 100.111 194.91 100.904 192.408 100.904C189.906 100.904 188.375 100.111 188.375 98.6895C188.375 97.2949 189.906 96.4883 192.408 96.4883ZM192.408 97.3496C190.576 97.3496 189.441 97.8555 189.455 98.6895C189.441 99.5508 190.576 100.043 192.408 100.057C194.254 100.043 195.375 99.5508 195.375 98.6895C195.375 97.8555 194.254 97.3496 192.408 97.3496ZM202.881 89.666C204.795 89.666 206.148 90.8281 206.148 92.5234C206.148 94.2188 204.795 95.3809 202.881 95.3809C200.967 95.3809 199.586 94.2188 199.6 92.5234C199.586 90.8281 200.967 89.666 202.881 89.666ZM202.881 90.6094C201.582 90.6094 200.639 91.3887 200.652 92.5234C200.639 93.6582 201.582 94.4375 202.881 94.4375C204.166 94.4375 205.096 93.6582 205.096 92.5234C205.096 91.3887 204.166 90.6094 202.881 90.6094ZM208.869 88.7773V100.959H207.803V88.7773H208.869ZM198.971 97.3633C201.213 97.3633 204.303 97.3496 206.996 96.9531L207.078 97.7461C204.303 98.2656 201.309 98.2793 199.121 98.2793L198.971 97.3633ZM218.275 90.0898V90.9648H211.029V90.0898H214.119V88.7227H215.186V90.0898H218.275ZM214.652 91.5938C216.402 91.6074 217.564 92.4551 217.578 93.7949C217.564 95.1211 216.402 95.9824 214.652 95.9824C212.902 95.9824 211.713 95.1211 211.727 93.7949C211.713 92.4551 212.902 91.6074 214.652 91.5938ZM214.652 92.4277C213.504 92.4414 212.738 92.9746 212.752 93.7949C212.738 94.6016 213.504 95.1211 214.652 95.1211C215.787 95.1211 216.553 94.6016 216.566 93.7949C216.553 92.9746 215.787 92.4414 214.652 92.4277ZM220.504 88.7773V92.1543H222.336V93.0566H220.504V96.3789H219.438V88.7773H220.504ZM220.504 97.0488V100.932H219.438V97.9238H212.547V97.0488H220.504ZM229.842 90.1309V90.7598C229.828 91.7168 229.828 93.3301 229.486 95.5859L228.406 95.4902C228.734 93.4531 228.762 91.9766 228.762 91.0059H223.662V90.1309H229.842ZM226.656 93.6035V97.2949C228.003 97.2471 229.384 97.1582 230.648 97.0078L230.703 97.8145C228.146 98.2109 225.289 98.2656 223.115 98.252L222.979 97.3633C223.778 97.3564 224.667 97.3496 225.604 97.3223V93.6035H226.656ZM232.48 88.7773V93.8633H234.449V94.793H232.48V100.932H231.414V88.7773H232.48Z" fill="#8C8C8C"/>
<path d="M184.725 38.7773V50.959H183.645V38.7773H184.725ZM176.48 39.8164V43.0293H180.104V39.8164H181.156V48.0195H175.414V39.8164H176.48ZM176.48 47.1172H180.104V43.8906H176.48V47.1172ZM196.646 44.3555V45.2578H194.842V48.4023H197.932V49.2773H186.803V48.4023H189.92V45.2578H188.143V39.8848H189.209V44.3555H196.646ZM190.986 48.4023H193.775V45.2578H190.986V48.4023ZM202.881 39.666C204.795 39.666 206.148 40.8281 206.148 42.5234C206.148 44.2188 204.795 45.3809 202.881 45.3809C200.967 45.3809 199.586 44.2188 199.6 42.5234C199.586 40.8281 200.967 39.666 202.881 39.666ZM202.881 40.6094C201.582 40.6094 200.639 41.3887 200.652 42.5234C200.639 43.6582 201.582 44.4375 202.881 44.4375C204.166 44.4375 205.096 43.6582 205.096 42.5234C205.096 41.3887 204.166 40.6094 202.881 40.6094ZM208.869 38.7773V50.959H207.803V38.7773H208.869ZM198.971 47.3633C201.213 47.3633 204.303 47.3496 206.996 46.9531L207.078 47.7461C204.303 48.2656 201.309 48.2793 199.121 48.2793L198.971 47.3633ZM218.275 40.0898V40.9648H211.029V40.0898H214.119V38.7227H215.186V40.0898H218.275ZM214.652 41.5938C216.402 41.6074 217.564 42.4551 217.578 43.7949C217.564 45.1211 216.402 45.9824 214.652 45.9824C212.902 45.9824 211.713 45.1211 211.727 43.7949C211.713 42.4551 212.902 41.6074 214.652 41.5938ZM214.652 42.4277C213.504 42.4414 212.738 42.9746 212.752 43.7949C212.738 44.6016 213.504 45.1211 214.652 45.1211C215.787 45.1211 216.553 44.6016 216.566 43.7949C216.553 42.9746 215.787 42.4414 214.652 42.4277ZM220.504 38.7773V42.1543H222.336V43.0566H220.504V46.3789H219.438V38.7773H220.504ZM220.504 47.0488V50.9316H219.438V47.9238H212.547V47.0488H220.504ZM229.842 40.1309V40.7598C229.828 41.7168 229.828 43.3301 229.486 45.5859L228.406 45.4902C228.734 43.4531 228.762 41.9766 228.762 41.0059H223.662V40.1309H229.842ZM226.656 43.6035V47.2949C228.003 47.2471 229.384 47.1582 230.648 47.0078L230.703 47.8145C228.146 48.2109 225.289 48.2656 223.115 48.252L222.979 47.3633C223.778 47.3564 224.667 47.3496 225.604 47.3223V43.6035H226.656ZM232.48 38.7773V43.8633H234.449V44.793H232.48V50.9316H231.414V38.7773H232.48Z" fill="#8C8C8C"/>
<path d="M184.205 113.791V117.797H186.037V118.699H184.205V122.896H183.139V113.791H184.205ZM181.977 115.281V116.156H174.73V115.281H177.82V113.791H178.887V115.281H181.977ZM178.354 116.826C180.09 116.826 181.266 117.715 181.279 119.096C181.266 120.463 180.09 121.338 178.354 121.338C176.604 121.338 175.414 120.463 175.428 119.096C175.414 117.715 176.604 116.826 178.354 116.826ZM178.354 117.674C177.205 117.674 176.439 118.234 176.453 119.096C176.439 119.957 177.205 120.504 178.354 120.49C179.488 120.504 180.254 119.957 180.268 119.096C180.254 118.234 179.488 117.674 178.354 117.674ZM184.766 124.77V125.672H176.604V122.172H177.656V124.77H184.766ZM190.781 114.666C192.695 114.666 194.049 115.828 194.049 117.523C194.049 119.219 192.695 120.381 190.781 120.381C188.867 120.381 187.486 119.219 187.5 117.523C187.486 115.828 188.867 114.666 190.781 114.666ZM190.781 115.609C189.482 115.609 188.539 116.389 188.553 117.523C188.539 118.658 189.482 119.438 190.781 119.438C192.066 119.438 192.996 118.658 192.996 117.523C192.996 116.389 192.066 115.609 190.781 115.609ZM196.77 113.777V125.959H195.703V113.777H196.77ZM186.871 122.363C189.113 122.363 192.203 122.35 194.896 121.953L194.979 122.746C192.203 123.266 189.209 123.279 187.021 123.279L186.871 122.363ZM208.924 113.791V123.02H207.844V121.762H205.328V120.982H207.844V113.791H208.924ZM209.225 124.77V125.672H200.584V122.117H201.664V124.77H209.225ZM198.834 119.424C201.104 119.41 204.139 119.396 206.75 119.068L206.818 119.848C205.731 120.019 204.597 120.128 203.482 120.189V122.596H202.402V120.244C201.172 120.299 200.003 120.306 198.984 120.299L198.834 119.424ZM202.826 114.283C204.604 114.283 205.82 115.131 205.834 116.402C205.82 117.701 204.604 118.508 202.826 118.508C201.035 118.508 199.818 117.701 199.818 116.402C199.818 115.131 201.035 114.283 202.826 114.283ZM202.826 115.104C201.637 115.09 200.83 115.623 200.844 116.402C200.83 117.195 201.637 117.715 202.826 117.715C203.975 117.715 204.795 117.195 204.809 116.402C204.795 115.623 203.975 115.09 202.826 115.104Z" fill="#8C8C8C"/>
<path d="M185.148 63.7773V75.9316H184.109V69.6152H182.455V75.3164H181.43V64.0371H182.455V68.6992H184.109V63.7773H185.148ZM178.299 67.0996C178.299 69.3281 179.215 71.2832 180.951 72.1719L180.309 73.0059C179.078 72.3359 178.237 71.1328 177.807 69.6426C177.39 71.3379 176.535 72.6641 175.25 73.416L174.58 72.5957C176.33 71.6387 177.26 69.5605 177.26 67.0996V66.1289H174.867V65.2266H180.555V66.1289H178.299V67.0996ZM196.291 63.7773V66.8945H198.109V67.8105H196.291V70.9551H195.211V63.7773H196.291ZM196.291 71.502V73.9492H189.469V75.0293H196.756V75.7949H188.402V73.2246H195.225V72.2676H188.375V71.502H196.291ZM186.748 69.8613C187.719 69.8613 188.854 69.8613 190.043 69.8203V69.0684C188.621 68.9658 187.719 68.3984 187.719 67.4688C187.719 66.4707 188.84 65.8965 190.562 65.8965C192.299 65.8965 193.406 66.4707 193.42 67.4688C193.406 68.3916 192.531 68.959 191.109 69.0684V69.793C192.244 69.7383 193.393 69.6494 194.459 69.4922L194.555 70.2168C191.93 70.6406 189.004 70.668 186.871 70.668L186.748 69.8613ZM194.09 64.707V65.4863H187.049V64.707H190.043V63.668H191.109V64.707H194.09ZM190.562 66.6074C189.441 66.6211 188.744 66.9355 188.744 67.4688C188.744 68.0156 189.441 68.3711 190.562 68.3711C191.684 68.3711 192.395 68.0156 192.395 67.4688C192.395 66.9355 191.684 66.6211 190.562 66.6074ZM202.881 64.666C204.795 64.666 206.148 65.8281 206.148 67.5234C206.148 69.2188 204.795 70.3809 202.881 70.3809C200.967 70.3809 199.586 69.2188 199.6 67.5234C199.586 65.8281 200.967 64.666 202.881 64.666ZM202.881 65.6094C201.582 65.6094 200.639 66.3887 200.652 67.5234C200.639 68.6582 201.582 69.4375 202.881 69.4375C204.166 69.4375 205.096 68.6582 205.096 67.5234C205.096 66.3887 204.166 65.6094 202.881 65.6094ZM208.869 63.7773V75.959H207.803V63.7773H208.869ZM198.971 72.3633C201.213 72.3633 204.303 72.3496 206.996 71.9531L207.078 72.7461C204.303 73.2656 201.309 73.2793 199.121 73.2793L198.971 72.3633ZM218.275 65.0898V65.9648H211.029V65.0898H214.119V63.7227H215.186V65.0898H218.275ZM214.652 66.5938C216.402 66.6074 217.564 67.4551 217.578 68.7949C217.564 70.1211 216.402 70.9824 214.652 70.9824C212.902 70.9824 211.713 70.1211 211.727 68.7949C211.713 67.4551 212.902 66.6074 214.652 66.5938ZM214.652 67.4277C213.504 67.4414 212.738 67.9746 212.752 68.7949C212.738 69.6016 213.504 70.1211 214.652 70.1211C215.787 70.1211 216.553 69.6016 216.566 68.7949C216.553 67.9746 215.787 67.4414 214.652 67.4277ZM220.504 63.7773V67.1543H222.336V68.0566H220.504V71.3789H219.438V63.7773H220.504ZM220.504 72.0488V75.9316H219.438V72.9238H212.547V72.0488H220.504ZM229.842 65.1309V65.7598C229.828 66.7168 229.828 68.3301 229.486 70.5859L228.406 70.4902C228.734 68.4531 228.762 66.9766 228.762 66.0059H223.662V65.1309H229.842ZM226.656 68.6035V72.2949C228.003 72.2471 229.384 72.1582 230.648 72.0078L230.703 72.8145C228.146 73.2109 225.289 73.2656 223.115 73.252L222.979 72.3633C223.778 72.3564 224.667 72.3496 225.604 72.3223V68.6035H226.656ZM232.48 63.7773V68.8633H234.449V69.793H232.48V75.9316H231.414V63.7773H232.48Z" fill="#8C8C8C"/>
<path d="M184.779 138.777V146.023H183.699V142.838H181.252V141.949H183.699V138.777H184.779ZM180.746 146.406C183.275 146.406 184.82 147.227 184.82 148.662C184.82 150.098 183.275 150.918 180.746 150.932C178.217 150.918 176.672 150.098 176.672 148.662C176.672 147.227 178.217 146.406 180.746 146.406ZM180.746 147.24C178.887 147.24 177.725 147.773 177.738 148.662C177.725 149.537 178.887 150.07 180.746 150.07C182.605 150.07 183.754 149.537 183.754 148.662C183.754 147.773 182.605 147.24 180.746 147.24ZM178.928 141.006C178.928 142.592 180.145 144.096 181.922 144.711L181.361 145.572C179.994 145.08 178.935 144.062 178.422 142.797C177.889 144.226 176.761 145.367 175.318 145.914L174.758 145.053C176.562 144.396 177.848 142.756 177.848 141.02V140.568H175.1V139.666H181.648V140.568H178.928V141.006ZM196.838 138.791V147.705H195.771V138.791H196.838ZM197.221 149.77V150.672H188.99V146.885H190.057V149.77H197.221ZM191.109 140.691C191.096 142.537 192.367 144.205 194.172 144.861L193.611 145.723C192.203 145.183 191.109 144.089 190.576 142.688C190.036 144.178 188.929 145.374 187.514 145.941L186.926 145.107C188.771 144.396 190.016 142.605 190.016 140.691V139.475H191.109V140.691ZM208.979 138.791V147.773H207.898V143.439H205.205V142.537H207.898V138.791H208.979ZM205.26 139.721C205.246 142.838 203.018 145.217 199.559 146.352L199.094 145.49C201.896 144.567 203.845 142.824 204.084 140.623H199.709V139.721H205.26ZM209.293 149.77V150.672H201.24V146.857H202.334V149.77H209.293ZM220.504 138.777V141.949H222.336V142.838H220.504V146.078H219.438V138.777H220.504ZM217.195 139.68C217.195 142.77 215.008 145.053 211.467 146.092L211.016 145.217C213.948 144.369 215.821 142.681 216.047 140.568H211.549V139.68H217.195ZM216.662 146.215C219.109 146.215 220.641 147.104 220.641 148.553C220.641 150.029 219.109 150.904 216.662 150.904C214.242 150.904 212.67 150.029 212.684 148.553C212.67 147.104 214.242 146.215 216.662 146.215ZM216.662 147.076C214.885 147.062 213.736 147.637 213.75 148.553C213.736 149.469 214.885 150.043 216.662 150.043C218.453 150.043 219.602 149.469 219.602 148.553C219.602 147.637 218.453 147.062 216.662 147.076ZM227.08 139.666C228.994 139.666 230.348 140.828 230.348 142.523C230.348 144.219 228.994 145.381 227.08 145.381C225.166 145.381 223.785 144.219 223.799 142.523C223.785 140.828 225.166 139.666 227.08 139.666ZM227.08 140.609C225.781 140.609 224.838 141.389 224.852 142.523C224.838 143.658 225.781 144.438 227.08 144.438C228.365 144.438 229.295 143.658 229.295 142.523C229.295 141.389 228.365 140.609 227.08 140.609ZM233.068 138.777V150.959H232.002V138.777H233.068ZM223.17 147.363C225.412 147.363 228.502 147.35 231.195 146.953L231.277 147.746C228.502 148.266 225.508 148.279 223.32 148.279L223.17 147.363ZM242.475 140.09V140.965H235.229V140.09H238.318V138.723H239.385V140.09H242.475ZM238.852 141.594C240.602 141.607 241.764 142.455 241.777 143.795C241.764 145.121 240.602 145.982 238.852 145.982C237.102 145.982 235.912 145.121 235.926 143.795C235.912 142.455 237.102 141.607 238.852 141.594ZM238.852 142.428C237.703 142.441 236.938 142.975 236.951 143.795C236.938 144.602 237.703 145.121 238.852 145.121C239.986 145.121 240.752 144.602 240.766 143.795C240.752 142.975 239.986 142.441 238.852 142.428ZM244.703 138.777V142.154H246.535V143.057H244.703V146.379H243.637V138.777H244.703ZM244.703 147.049V150.932H243.637V147.924H236.746V147.049H244.703ZM254.041 140.131V140.76C254.027 141.717 254.027 143.33 253.686 145.586L252.605 145.49C252.934 143.453 252.961 141.977 252.961 141.006H247.861V140.131H254.041ZM250.855 143.604V147.295C252.202 147.247 253.583 147.158 254.848 147.008L254.902 147.814C252.346 148.211 249.488 148.266 247.314 148.252L247.178 147.363C247.978 147.356 248.866 147.35 249.803 147.322V143.604H250.855ZM256.68 138.777V143.863H258.648V144.793H256.68V150.932H255.613V138.777H256.68Z" fill="#8C8C8C"/>
<path d="M184.725 163.777V175.932H183.645V163.777H184.725ZM179.188 167.742C179.188 169.779 180.609 171.748 182.441 172.527L181.84 173.361C180.438 172.739 179.249 171.42 178.682 169.807C178.135 171.516 176.952 172.917 175.551 173.58L174.949 172.746C176.754 171.926 178.135 169.875 178.135 167.742V166.771H175.277V165.896H178.121V164.01H179.188V165.896H182.018V166.771H179.188V167.742ZM193.543 165.131V165.76C193.529 166.717 193.529 168.33 193.188 170.586L192.107 170.49C192.436 168.453 192.463 166.977 192.463 166.006H187.363V165.131H193.543ZM190.357 168.604V172.295C191.704 172.247 193.085 172.158 194.35 172.008L194.404 172.814C191.848 173.211 188.99 173.266 186.816 173.252L186.68 172.363C187.479 172.356 188.368 172.35 189.305 172.322V168.604H190.357ZM196.182 163.777V168.863H198.15V169.793H196.182V175.932H195.115V163.777H196.182Z" fill="#8C8C8C"/>
<path d="M100.08 13.7773V25.9316H99.0273V19.6426H97.2773V25.3027H96.2656V14.0508H97.2773V18.7266H99.0273V13.7773H100.08ZM91.3848 15.2676V21.8301C92.5947 21.8164 93.8799 21.7344 95.3633 21.4336L95.5 22.3906C93.8047 22.6914 92.4102 22.7871 91.0703 22.7871H90.3184V15.2676H91.3848ZM108.543 15.1309V15.7598C108.529 16.7168 108.529 18.3301 108.188 20.5859L107.107 20.4902C107.436 18.4531 107.463 16.9766 107.463 16.0059H102.363V15.1309H108.543ZM105.357 18.6035V22.2949C106.704 22.2471 108.085 22.1582 109.35 22.0078L109.404 22.8145C106.848 23.2109 103.99 23.2656 101.816 23.252L101.68 22.3633C102.479 22.3564 103.368 22.3496 104.305 22.3223V18.6035H105.357ZM111.182 13.7773V18.8633H113.15V19.793H111.182V25.9316H110.115V13.7773H111.182Z" fill="#8C8C8C"/>
<path d="M99.1094 88.7773V93.7266H101.078V94.6289H99.1094V100.932H98.043V88.7773H99.1094ZM95.9648 90.0898C95.9648 93.5352 94.3516 96.666 90.3867 98.6211L89.7852 97.7734C92.9297 96.208 94.6387 93.8701 94.8848 90.9922H90.3457V90.0898H95.9648ZM111.879 88.7773V96.0234H110.799V92.8379H108.352V91.9492H110.799V88.7773H111.879ZM107.846 96.4062C110.375 96.4062 111.92 97.2266 111.92 98.6621C111.92 100.098 110.375 100.918 107.846 100.932C105.316 100.918 103.771 100.098 103.771 98.6621C103.771 97.2266 105.316 96.4062 107.846 96.4062ZM107.846 97.2402C105.986 97.2402 104.824 97.7734 104.838 98.6621C104.824 99.5371 105.986 100.07 107.846 100.07C109.705 100.07 110.854 99.5371 110.854 98.6621C110.854 97.7734 109.705 97.2402 107.846 97.2402ZM106.027 91.0059C106.027 92.5918 107.244 94.0957 109.021 94.7109L108.461 95.5723C107.094 95.0801 106.034 94.0615 105.521 92.7969C104.988 94.2256 103.86 95.3672 102.418 95.9141L101.857 95.0527C103.662 94.3965 104.947 92.7559 104.947 91.0195V90.5684H102.199V89.666H108.748V90.5684H106.027V91.0059ZM117.881 89.666C119.795 89.666 121.148 90.8281 121.148 92.5234C121.148 94.2188 119.795 95.3809 117.881 95.3809C115.967 95.3809 114.586 94.2188 114.6 92.5234C114.586 90.8281 115.967 89.666 117.881 89.666ZM117.881 90.6094C116.582 90.6094 115.639 91.3887 115.652 92.5234C115.639 93.6582 116.582 94.4375 117.881 94.4375C119.166 94.4375 120.096 93.6582 120.096 92.5234C120.096 91.3887 119.166 90.6094 117.881 90.6094ZM123.869 88.7773V100.959H122.803V88.7773H123.869ZM113.971 97.3633C116.213 97.3633 119.303 97.3496 121.996 96.9531L122.078 97.7461C119.303 98.2656 116.309 98.2793 114.121 98.2793L113.971 97.3633ZM133.275 90.0898V90.9648H126.029V90.0898H129.119V88.7227H130.186V90.0898H133.275ZM129.652 91.5938C131.402 91.6074 132.564 92.4551 132.578 93.7949C132.564 95.1211 131.402 95.9824 129.652 95.9824C127.902 95.9824 126.713 95.1211 126.727 93.7949C126.713 92.4551 127.902 91.6074 129.652 91.5938ZM129.652 92.4277C128.504 92.4414 127.738 92.9746 127.752 93.7949C127.738 94.6016 128.504 95.1211 129.652 95.1211C130.787 95.1211 131.553 94.6016 131.566 93.7949C131.553 92.9746 130.787 92.4414 129.652 92.4277ZM135.504 88.7773V92.1543H137.336V93.0566H135.504V96.3789H134.438V88.7773H135.504ZM135.504 97.0488V100.932H134.438V97.9238H127.547V97.0488H135.504ZM144.842 90.1309V90.7598C144.828 91.7168 144.828 93.3301 144.486 95.5859L143.406 95.4902C143.734 93.4531 143.762 91.9766 143.762 91.0059H138.662V90.1309H144.842ZM141.656 93.6035V97.2949C143.003 97.2471 144.384 97.1582 145.648 97.0078L145.703 97.8145C143.146 98.2109 140.289 98.2656 138.115 98.252L137.979 97.3633C138.778 97.3564 139.667 97.3496 140.604 97.3223V93.6035H141.656ZM147.48 88.7773V93.8633H149.449V94.793H147.48V100.932H146.414V88.7773H147.48Z" fill="#8C8C8C"/>
<path d="M99.752 38.7773V50.9316H98.6719V38.7773H99.752ZM96.9492 40.1035V40.9922H95.5684V46.8438C96.252 46.7959 96.9287 46.7344 97.5781 46.6523L97.6465 47.459C94.9941 47.8691 92.0684 47.9102 89.8125 47.9238L89.6895 47.0078L91.3711 46.9941V40.9922H90.0039V40.1035H96.9492ZM92.4238 46.9805C93.1074 46.9668 93.8115 46.9395 94.5156 46.8984V40.9922H92.4238V46.9805ZM112.918 45.9961V46.8711H107.846V50.9316H106.793V46.8711H101.789V45.9961H112.918ZM104.277 39.2832V40.9648H110.402V39.2832H111.482V44.5195H103.211V39.2832H104.277ZM104.277 43.6445H110.402V41.8398H104.277V43.6445ZM120.643 40.1309V40.7598C120.629 41.7168 120.629 43.3301 120.287 45.5859L119.207 45.4902C119.535 43.4531 119.562 41.9766 119.562 41.0059H114.463V40.1309H120.643ZM117.457 43.6035V47.2949C118.804 47.2471 120.185 47.1582 121.449 47.0078L121.504 47.8145C118.947 48.2109 116.09 48.2656 113.916 48.252L113.779 47.3633C114.579 47.3564 115.468 47.3496 116.404 47.3223V43.6035H117.457ZM123.281 38.7773V43.8633H125.25V44.793H123.281V50.9316H122.215V38.7773H123.281Z" fill="#8C8C8C"/>
<path d="M95.8145 115.008V122.842H90.209V115.008H95.8145ZM91.248 115.869V121.967H94.748V115.869H91.248ZM99.1094 113.777V118.631H101.146V119.561H99.1094V125.932H98.043V113.777H99.1094ZM106.383 116.074C106.383 117.305 107.6 118.344 109.322 118.727L108.885 119.588C107.483 119.246 106.403 118.501 105.877 117.51C105.351 118.583 104.257 119.396 102.814 119.752L102.35 118.891C104.1 118.508 105.316 117.373 105.316 116.074V116.02H102.609V115.172H105.316V113.818H106.383V115.172H109.09V116.02H106.383V116.074ZM111.824 113.791V125.945H110.771V113.791H111.824ZM101.775 120.613C104.1 120.613 107.189 120.586 109.883 120.244L109.951 121.023C108.789 121.215 107.586 121.331 106.41 121.393V125.576H105.344V121.447C104.113 121.509 102.944 121.516 101.926 121.516L101.775 120.613ZM124.977 120.23V121.105H113.889V120.23H118.893V119.027H115.365V114.133H123.596V115.008H116.445V116.143H123.268V116.963H116.445V118.166H123.664V119.027H119.959V120.23H124.977ZM119.439 122.021C122.105 122.008 123.609 122.691 123.623 123.963C123.609 125.234 122.105 125.904 119.439 125.904C116.746 125.904 115.242 125.234 115.242 123.963C115.242 122.691 116.746 122.008 119.439 122.021ZM119.439 122.828C117.43 122.828 116.309 123.238 116.322 123.963C116.309 124.701 117.43 125.084 119.439 125.07C121.422 125.084 122.543 124.701 122.543 123.963C122.543 123.238 121.422 122.828 119.439 122.828ZM137.076 119.561V120.449H126.002V119.561H137.076ZM131.539 121.516C134.15 121.516 135.709 122.322 135.723 123.717C135.709 125.125 134.15 125.904 131.539 125.904C128.914 125.904 127.342 125.125 127.342 123.717C127.342 122.322 128.914 121.516 131.539 121.516ZM131.539 122.363C129.584 122.377 128.422 122.855 128.436 123.717C128.422 124.564 129.584 125.043 131.539 125.043C133.467 125.043 134.643 124.564 134.643 123.717C134.643 122.855 133.467 122.377 131.539 122.363ZM136.092 114.406V115.295H132.236C132.277 116.676 134.301 117.729 136.461 117.975L136.064 118.836C134.075 118.583 132.209 117.694 131.539 116.334C130.876 117.694 129.017 118.583 127.014 118.836L126.631 117.975C128.75 117.729 130.787 116.676 130.842 115.295H127.014V114.406H136.092ZM145.375 115.09V115.965H138.129V115.09H141.219V113.723H142.285V115.09H145.375ZM141.752 116.594C143.502 116.607 144.664 117.455 144.678 118.795C144.664 120.121 143.502 120.982 141.752 120.982C140.002 120.982 138.812 120.121 138.826 118.795C138.812 117.455 140.002 116.607 141.752 116.594ZM141.752 117.428C140.604 117.441 139.838 117.975 139.852 118.795C139.838 119.602 140.604 120.121 141.752 120.121C142.887 120.121 143.652 119.602 143.666 118.795C143.652 117.975 142.887 117.441 141.752 117.428ZM147.604 113.777V117.154H149.436V118.057H147.604V121.379H146.537V113.777H147.604ZM147.604 122.049V125.932H146.537V122.924H139.646V122.049H147.604ZM156.941 115.131V115.76C156.928 116.717 156.928 118.33 156.586 120.586L155.506 120.49C155.834 118.453 155.861 116.977 155.861 116.006H150.762V115.131H156.941ZM153.756 118.604V122.295C155.103 122.247 156.483 122.158 157.748 122.008L157.803 122.814C155.246 123.211 152.389 123.266 150.215 123.252L150.078 122.363C150.878 122.356 151.767 122.35 152.703 122.322V118.604H153.756ZM159.58 113.777V118.863H161.549V119.793H159.58V125.932H158.514V113.777H159.58Z" fill="#8C8C8C"/>
<path d="M99.7793 63.7773V71.0234H98.6992V67.8379H96.252V66.9492H98.6992V63.7773H99.7793ZM95.7461 71.4062C98.2754 71.4062 99.8203 72.2266 99.8203 73.6621C99.8203 75.0977 98.2754 75.918 95.7461 75.9316C93.2168 75.918 91.6719 75.0977 91.6719 73.6621C91.6719 72.2266 93.2168 71.4062 95.7461 71.4062ZM95.7461 72.2402C93.8867 72.2402 92.7246 72.7734 92.7383 73.6621C92.7246 74.5371 93.8867 75.0703 95.7461 75.0703C97.6055 75.0703 98.7539 74.5371 98.7539 73.6621C98.7539 72.7734 97.6055 72.2402 95.7461 72.2402ZM93.9277 66.0059C93.9277 67.5918 95.1445 69.0957 96.9219 69.7109L96.3613 70.5723C94.9941 70.0801 93.9346 69.0615 93.4219 67.7969C92.8887 69.2256 91.7607 70.3672 90.3184 70.9141L89.7578 70.0527C91.5625 69.3965 92.8477 67.7559 92.8477 66.0195V65.5684H90.0996V64.666H96.6484V65.5684H93.9277V66.0059ZM108.693 65.1445V66.0195H101.816V65.1445H104.77V63.6816H105.836V65.1445H108.693ZM105.289 66.6484C106.916 66.6484 108.064 67.5371 108.064 68.8906C108.064 70.2578 106.916 71.1465 105.289 71.1465C103.648 71.1465 102.527 70.2578 102.541 68.8906C102.527 67.5371 103.648 66.6484 105.289 66.6484ZM105.289 67.4551C104.236 67.4688 103.539 68.043 103.539 68.8906C103.539 69.752 104.236 70.3125 105.289 70.3125C106.342 70.3125 107.053 69.752 107.066 68.8906C107.053 68.043 106.342 67.4688 105.289 67.4551ZM111.879 63.7773V71.6387H110.799V69.957H108.68V69.0684H110.799V67.5918H108.693V66.7031H110.799V63.7773H111.879ZM107.873 71.7617C110.402 71.7617 111.947 72.5137 111.947 73.8398C111.947 75.1387 110.402 75.9043 107.873 75.9043C105.316 75.9043 103.785 75.1387 103.785 73.8398C103.785 72.5137 105.316 71.7617 107.873 71.7617ZM107.873 72.5957C106.027 72.5957 104.893 73.0469 104.893 73.8398C104.893 74.6055 106.027 75.0703 107.873 75.0703C109.691 75.0703 110.812 74.6055 110.812 73.8398C110.812 73.0469 109.691 72.5957 107.873 72.5957ZM117.881 64.5703C119.795 64.584 121.148 65.7324 121.148 67.4277C121.148 68.959 120.041 70.0459 118.414 70.2305V72.3086C119.617 72.2471 120.841 72.1445 121.996 71.9668L122.078 72.7598C119.303 73.2793 116.309 73.293 114.121 73.293L113.971 72.3906C114.962 72.3906 116.117 72.3906 117.334 72.3496V70.2305C115.707 70.0391 114.586 68.959 114.6 67.4277C114.586 65.7324 115.967 64.584 117.881 64.5703ZM117.881 65.5137C116.582 65.5137 115.639 66.293 115.652 67.4277C115.639 68.5625 116.582 69.3555 117.881 69.3418C119.166 69.3555 120.096 68.5625 120.096 67.4277C120.096 66.293 119.166 65.5137 117.881 65.5137ZM123.869 63.7773V75.959H122.803V63.7773H123.869ZM132.742 65.1309V65.7598C132.729 66.7168 132.729 68.3301 132.387 70.5859L131.307 70.4902C131.635 68.4531 131.662 66.9766 131.662 66.0059H126.562V65.1309H132.742ZM129.557 68.6035V72.2949C130.903 72.2471 132.284 72.1582 133.549 72.0078L133.604 72.8145C131.047 73.2109 128.189 73.2656 126.016 73.252L125.879 72.3633C126.679 72.3564 127.567 72.3496 128.504 72.3223V68.6035H129.557ZM135.381 63.7773V68.8633H137.35V69.793H135.381V75.9316H134.314V63.7773H135.381Z" fill="#8C8C8C"/>
<path d="M93.791 141.074C93.7773 142.742 95.0488 144.287 96.8398 144.916L96.293 145.777C94.9121 145.278 93.8389 144.246 93.2988 142.947C92.7861 144.403 91.6855 145.524 90.25 146.078L89.6621 145.217C91.5078 144.561 92.7246 142.92 92.7383 141.033V139.529H93.791V141.074ZM99.2051 138.777V142.51H101.037V143.426H99.2051V147.76H98.1387V138.777H99.2051ZM99.7656 149.77V150.672H91.6172V146.898H92.7109V149.77H99.7656ZM112.918 145.996V146.871H107.846V150.932H106.793V146.871H101.789V145.996H112.918ZM104.277 139.283V140.965H110.402V139.283H111.482V144.52H103.211V139.283H104.277ZM104.277 143.645H110.402V141.84H104.277V143.645ZM123.938 138.791V147.678H122.871V138.791H123.938ZM124.32 149.77V150.672H116.09V146.775H117.156V149.77H124.32ZM117.375 139.639C119.193 139.639 120.561 140.869 120.561 142.619C120.561 144.396 119.193 145.613 117.375 145.613C115.557 145.613 114.189 144.396 114.189 142.619C114.189 140.869 115.557 139.639 117.375 139.639ZM117.375 140.582C116.145 140.582 115.229 141.43 115.242 142.619C115.229 143.836 116.145 144.67 117.375 144.67C118.578 144.67 119.508 143.836 119.508 142.619C119.508 141.43 118.578 140.582 117.375 140.582ZM132.742 140.131V140.76C132.729 141.717 132.729 143.33 132.387 145.586L131.307 145.49C131.635 143.453 131.662 141.977 131.662 141.006H126.562V140.131H132.742ZM129.557 143.604V147.295C130.903 147.247 132.284 147.158 133.549 147.008L133.604 147.814C131.047 148.211 128.189 148.266 126.016 148.252L125.879 147.363C126.679 147.356 127.567 147.35 128.504 147.322V143.604H129.557ZM135.381 138.777V143.863H137.35V144.793H135.381V150.932H134.314V138.777H135.381Z" fill="#8C8C8C"/>
<path d="M95.2402 172.172C95.8623 172.172 96.416 172.206 96.9082 172.268V171.174H93.5723V172.268C94.0645 172.206 94.6182 172.172 95.2402 172.172ZM95.2402 172.965C93.2578 172.965 92.1367 173.361 92.1367 174.045C92.1367 174.742 93.2578 175.111 95.2402 175.111C97.209 175.111 98.3301 174.742 98.3301 174.045C98.3301 173.361 97.209 172.965 95.2402 172.965ZM100.135 164.803V165.637H90.2773V164.803H94.707V163.6H95.7734V164.803H100.135ZM95.2402 166.129C97.7559 166.129 99.1777 166.703 99.1777 167.838C99.1777 168.973 97.7559 169.574 95.2402 169.574C92.7246 169.574 91.2891 168.973 91.2891 167.838C91.2891 166.703 92.7246 166.129 95.2402 166.129ZM95.2402 166.881C93.4492 166.881 92.4375 167.223 92.4512 167.838C92.4375 168.467 93.4492 168.795 95.2402 168.795C97.0176 168.795 98.043 168.467 98.043 167.838C98.043 167.223 97.0176 166.881 95.2402 166.881ZM100.777 170.299V171.174H97.9746V172.514C98.9111 172.821 99.417 173.334 99.4238 174.045C99.4102 175.275 97.9062 175.918 95.2402 175.932C92.5469 175.918 91.043 175.275 91.043 174.045C91.043 173.334 91.5488 172.821 92.4922 172.5V171.174H89.7031V170.299H100.777ZM112.918 170.996V171.871H107.846V175.932H106.793V171.871H101.789V170.996H112.918ZM104.277 164.283V165.965H110.402V164.283H111.482V169.52H103.211V164.283H104.277ZM104.277 168.645H110.402V166.84H104.277V168.645ZM117.881 164.57C119.795 164.584 121.148 165.732 121.148 167.428C121.148 168.959 120.041 170.046 118.414 170.23V172.309C119.617 172.247 120.841 172.145 121.996 171.967L122.078 172.76C119.303 173.279 116.309 173.293 114.121 173.293L113.971 172.391C114.962 172.391 116.117 172.391 117.334 172.35V170.23C115.707 170.039 114.586 168.959 114.6 167.428C114.586 165.732 115.967 164.584 117.881 164.57ZM117.881 165.514C116.582 165.514 115.639 166.293 115.652 167.428C115.639 168.562 116.582 169.355 117.881 169.342C119.166 169.355 120.096 168.562 120.096 167.428C120.096 166.293 119.166 165.514 117.881 165.514ZM123.869 163.777V175.959H122.803V163.777H123.869ZM132.742 165.131V165.76C132.729 166.717 132.729 168.33 132.387 170.586L131.307 170.49C131.635 168.453 131.662 166.977 131.662 166.006H126.562V165.131H132.742ZM129.557 168.604V172.295C130.903 172.247 132.284 172.158 133.549 172.008L133.604 172.814C131.047 173.211 128.189 173.266 126.016 173.252L125.879 172.363C126.679 172.356 127.567 172.35 128.504 172.322V168.604H129.557ZM135.381 163.777V168.863H137.35V169.793H135.381V175.932H134.314V163.777H135.381Z" fill="#8C8C8C"/>
<path d="M26.7793 13.791V22.7051H25.6992V18.043H23.1973V17.1543H25.6992V13.791H26.7793ZM27.1211 24.7695V25.6719H18.9727V21.8984H20.0527V24.7695H27.1211ZM20.9277 16.293C20.9277 17.8652 22.1445 19.3965 23.9219 19.998L23.3613 20.8594C21.9873 20.3672 20.9277 19.3418 20.4082 18.084C19.8818 19.4854 18.7607 20.6064 17.3184 21.1465L16.7578 20.2715C18.5488 19.6426 19.8477 18.043 19.8477 16.293V15.6641H17.0996V14.7754H23.6484V15.6641H20.9277V16.293ZM32.3574 17.5234C32.3574 19.4785 33.3555 21.4746 35.0098 22.3633L34.3945 23.1699C33.1846 22.5137 32.3096 21.2559 31.8652 19.793C31.4277 21.3516 30.5596 22.7051 29.3496 23.4434L28.707 22.623C30.3613 21.666 31.332 19.5332 31.3457 17.5234V16.9219H29.0352V16.0332H31.3457V14.2285H32.3711V16.0332H34.6406V16.9219H32.3574V17.5234ZM39.1934 13.7773V25.9316H38.168V13.7773H39.1934ZM36.7324 14.0781V25.3027H35.7207V19.4922H33.8066V18.5762H35.7207V14.0781H36.7324Z" fill="#8C8C8C"/>
<path d="M20.6816 89.5703C22.5957 89.584 23.9492 90.7324 23.9492 92.4277C23.9492 93.959 22.8418 95.0459 21.2148 95.2305V97.3086C22.418 97.2471 23.6416 97.1445 24.7969 96.9668L24.8789 97.7598C22.1035 98.2793 19.1094 98.293 16.9219 98.293L16.7715 97.3906C17.7627 97.3906 18.918 97.3906 20.1348 97.3496V95.2305C18.5078 95.0391 17.3867 93.959 17.4004 92.4277C17.3867 90.7324 18.7676 89.584 20.6816 89.5703ZM20.6816 90.5137C19.3828 90.5137 18.4395 91.293 18.4531 92.4277C18.4395 93.5625 19.3828 94.3555 20.6816 94.3418C21.9668 94.3555 22.8965 93.5625 22.8965 92.4277C22.8965 91.293 21.9668 90.5137 20.6816 90.5137ZM26.6699 88.7773V100.959H25.6035V88.7773H26.6699ZM35.543 90.1309V90.7598C35.5293 91.7168 35.5293 93.3301 35.1875 95.5859L34.1074 95.4902C34.4355 93.4531 34.4629 91.9766 34.4629 91.0059H29.3633V90.1309H35.543ZM32.3574 93.6035V97.2949C33.7041 97.2471 35.085 97.1582 36.3496 97.0078L36.4043 97.8145C33.8477 98.2109 30.9902 98.2656 28.8164 98.252L28.6797 97.3633C29.4795 97.3564 30.3682 97.3496 31.3047 97.3223V93.6035H32.3574ZM38.1816 88.7773V93.8633H40.1504V94.793H38.1816V100.932H37.1152V88.7773H38.1816Z" fill="#8C8C8C"/>
<path d="M27.832 48.457V49.3457H16.7031V48.457H21.6797V45.4766H22.7324V48.457H27.832ZM22.7598 40.541C22.7598 42.5781 25.166 44.3555 27.2852 44.7246L26.8066 45.6133C24.9541 45.2373 22.999 43.9795 22.2129 42.2227C21.4131 43.9727 19.4717 45.2373 17.6191 45.6133L17.1406 44.7246C19.2598 44.3555 21.6387 42.5781 21.6387 40.541V39.6113H22.7598V40.541ZM32.0566 39.7207C33.8477 39.7344 35.1191 41.375 35.1328 43.959C35.1191 46.543 33.8477 48.1836 32.0566 48.1836C30.252 48.1836 28.9941 46.543 28.9941 43.959C28.9941 41.375 30.252 39.7344 32.0566 39.7207ZM32.0566 40.6777C30.8535 40.6914 30.0059 41.9766 30.0059 43.959C30.0059 45.9414 30.8535 47.2266 32.0566 47.2266C33.2734 47.2266 34.0938 45.9414 34.0938 43.959C34.0938 41.9766 33.2734 40.6914 32.0566 40.6777ZM38.209 38.7773V43.6309H40.2461V44.5605H38.209V50.9316H37.1426V38.7773H38.209ZM47.6426 40.1309V40.7598C47.6289 41.7168 47.6289 43.3301 47.2871 45.5859L46.207 45.4902C46.5352 43.4531 46.5625 41.9766 46.5625 41.0059H41.4629V40.1309H47.6426ZM44.457 43.6035V47.2949C45.8037 47.2471 47.1846 47.1582 48.4492 47.0078L48.5039 47.8145C45.9473 48.2109 43.0898 48.2656 40.916 48.252L40.7793 47.3633C41.5791 47.3564 42.4678 47.3496 43.4043 47.3223V43.6035H44.457ZM50.2812 38.7773V43.8633H52.25V44.793H50.2812V50.9316H49.2148V38.7773H50.2812Z" fill="#8C8C8C"/>
<path d="M26.7383 113.791V122.705H25.6719V113.791H26.7383ZM27.1211 124.77V125.672H18.8906V121.885H19.957V124.77H27.1211ZM21.0098 115.691C20.9961 117.537 22.2676 119.205 24.0723 119.861L23.5117 120.723C22.1035 120.183 21.0098 119.089 20.4766 117.688C19.9365 119.178 18.8291 120.374 17.4141 120.941L16.8262 120.107C18.6719 119.396 19.916 117.605 19.916 115.691V114.475H21.0098V115.691ZM38.8789 113.791V121.092H37.7988V119.451H34.5723V118.562H37.7988V116.922H34.6953C33.8955 118.877 32.0156 120.292 29.418 121.064L28.9668 120.217C31.9062 119.342 33.7314 117.701 33.957 115.596H29.582V114.693H35.1191C35.1191 115.172 35.0645 115.63 34.9688 116.061H37.7988V113.791H38.8789ZM34.9004 121.215C37.3613 121.215 38.9473 122.09 38.9473 123.539C38.9473 125.002 37.3613 125.877 34.9004 125.877C32.4121 125.877 30.8398 125.002 30.8398 123.539C30.8398 122.09 32.4121 121.215 34.9004 121.215ZM34.9004 122.076C33.0684 122.062 31.8926 122.623 31.8926 123.539C31.8926 124.455 33.0684 125.002 34.9004 125.002C36.7051 125.002 37.8672 124.455 37.8809 123.539C37.8672 122.623 36.7051 122.062 34.9004 122.076ZM44.8809 114.57C46.7949 114.584 48.1484 115.732 48.1484 117.428C48.1484 118.959 47.041 120.046 45.4141 120.23V122.309C46.6172 122.247 47.8408 122.145 48.9961 121.967L49.0781 122.76C46.3027 123.279 43.3086 123.293 41.1211 123.293L40.9707 122.391C41.9619 122.391 43.1172 122.391 44.334 122.35V120.23C42.707 120.039 41.5859 118.959 41.5996 117.428C41.5859 115.732 42.9668 114.584 44.8809 114.57ZM44.8809 115.514C43.582 115.514 42.6387 116.293 42.6523 117.428C42.6387 118.562 43.582 119.355 44.8809 119.342C46.166 119.355 47.0957 118.562 47.0957 117.428C47.0957 116.293 46.166 115.514 44.8809 115.514ZM50.8691 113.777V125.959H49.8027V113.777H50.8691ZM59.7422 115.131V115.76C59.7285 116.717 59.7285 118.33 59.3867 120.586L58.3066 120.49C58.6348 118.453 58.6621 116.977 58.6621 116.006H53.5625V115.131H59.7422ZM56.5566 118.604V122.295C57.9033 122.247 59.2842 122.158 60.5488 122.008L60.6035 122.814C58.0469 123.211 55.1895 123.266 53.0156 123.252L52.8789 122.363C53.6787 122.356 54.5674 122.35 55.5039 122.322V118.604H56.5566ZM62.3809 113.777V118.863H64.3496V119.793H62.3809V125.932H61.3145V113.777H62.3809Z" fill="#8C8C8C"/>
<path d="M26.7246 63.7773V75.959H25.6445V63.7773H26.7246ZM20.2578 64.7207C22.0625 64.7344 23.3613 66.375 23.3613 68.959C23.3613 71.543 22.0625 73.1836 20.2578 73.1836C18.4395 73.1836 17.1543 71.543 17.1543 68.959C17.1543 66.375 18.4395 64.7344 20.2578 64.7207ZM20.2578 65.6777C19.041 65.6914 18.1934 66.9766 18.1934 68.959C18.1934 70.9414 19.041 72.2266 20.2578 72.2266C21.4746 72.2266 22.3223 70.9414 22.3223 68.959C22.3223 66.9766 21.4746 65.6914 20.2578 65.6777ZM38.8242 63.7773V75.959H37.7441V63.7773H38.8242ZM30.5801 64.8164V68.0293H34.2031V64.8164H35.2559V73.0195H29.5137V64.8164H30.5801ZM30.5801 72.1172H34.2031V68.8906H30.5801V72.1172ZM50.9375 63.791V72.6777H49.8711V63.791H50.9375ZM51.3203 74.7695V75.6719H43.0898V71.7754H44.1562V74.7695H51.3203ZM44.375 64.6387C46.1934 64.6387 47.5605 65.8691 47.5605 67.6191C47.5605 69.3965 46.1934 70.6133 44.375 70.6133C42.5566 70.6133 41.1895 69.3965 41.1895 67.6191C41.1895 65.8691 42.5566 64.6387 44.375 64.6387ZM44.375 65.582C43.1445 65.582 42.2285 66.4297 42.2422 67.6191C42.2285 68.8359 43.1445 69.6699 44.375 69.6699C45.5781 69.6699 46.5078 68.8359 46.5078 67.6191C46.5078 66.4297 45.5781 65.582 44.375 65.582ZM63.4336 65.1719V66.0605H53.5762V65.1719H58.0059V63.709H59.0586V65.1719H63.4336ZM64.1309 71.6523V72.541H59.0586V75.959H58.0059V72.541H53.002V71.6523H64.1309ZM58.5391 66.7578C61.0137 66.7578 62.5039 67.4824 62.5039 68.7949C62.5039 70.0801 61.0137 70.8047 58.5391 70.8184C56.0508 70.8047 54.5605 70.0801 54.5742 68.7949C54.5605 67.4824 56.0508 66.7578 58.5391 66.7578ZM58.5391 67.5781C56.7207 67.5781 55.668 68.0293 55.6816 68.7949C55.668 69.5469 56.7207 69.9844 58.5391 69.9844C60.3301 69.9844 61.3828 69.5469 61.3965 68.7949C61.3828 68.0293 60.3301 67.5781 58.5391 67.5781ZM71.8418 65.1309V65.7598C71.8281 66.7168 71.8281 68.3301 71.4863 70.5859L70.4062 70.4902C70.7344 68.4531 70.7617 66.9766 70.7617 66.0059H65.6621V65.1309H71.8418ZM68.6562 68.6035V72.2949C70.0029 72.2471 71.3838 72.1582 72.6484 72.0078L72.7031 72.8145C70.1465 73.2109 67.2891 73.2656 65.1152 73.252L64.9785 72.3633C65.7783 72.3564 66.667 72.3496 67.6035 72.3223V68.6035H68.6562ZM74.4805 63.7773V68.8633H76.4492V69.793H74.4805V75.9316H73.4141V63.7773H74.4805Z" fill="#8C8C8C"/>
<path d="M20.8867 140.691C20.873 142.428 22.1035 143.959 23.8945 144.561L23.293 145.395C21.9531 144.889 20.9004 143.904 20.3809 142.619C19.8545 144.075 18.7402 145.21 17.2773 145.764L16.6895 144.889C18.5625 144.232 19.8066 142.619 19.8203 140.732V139.475H20.8867V140.691ZM26.7793 138.777V145.982H25.6992V142.277H22.9922V141.389H25.6992V138.777H26.7793ZM22.7461 146.338C25.2754 146.338 26.8203 147.172 26.8203 148.635C26.8203 150.084 25.2754 150.904 22.7461 150.904C20.2168 150.904 18.6719 150.084 18.6719 148.635C18.6719 147.172 20.2168 146.338 22.7461 146.338ZM22.7461 147.186C20.8867 147.186 19.7246 147.732 19.7383 148.635C19.7246 149.51 20.8867 150.043 22.7461 150.043C24.6055 150.043 25.7539 149.51 25.7539 148.635C25.7539 147.732 24.6055 147.186 22.7461 147.186ZM35.6934 140.145V141.02H28.8164V140.145H31.7695V138.682H32.8359V140.145H35.6934ZM32.2891 141.648C33.916 141.648 35.0645 142.537 35.0645 143.891C35.0645 145.258 33.916 146.146 32.2891 146.146C30.6484 146.146 29.5273 145.258 29.541 143.891C29.5273 142.537 30.6484 141.648 32.2891 141.648ZM32.2891 142.455C31.2363 142.469 30.5391 143.043 30.5391 143.891C30.5391 144.752 31.2363 145.312 32.2891 145.312C33.3418 145.312 34.0527 144.752 34.0664 143.891C34.0527 143.043 33.3418 142.469 32.2891 142.455ZM38.8789 138.777V146.639H37.7988V144.957H35.6797V144.068H37.7988V142.592H35.6934V141.703H37.7988V138.777H38.8789ZM34.873 146.762C37.4023 146.762 38.9473 147.514 38.9473 148.84C38.9473 150.139 37.4023 150.904 34.873 150.904C32.3164 150.904 30.7852 150.139 30.7852 148.84C30.7852 147.514 32.3164 146.762 34.873 146.762ZM34.873 147.596C33.0273 147.596 31.8926 148.047 31.8926 148.84C31.8926 149.605 33.0273 150.07 34.873 150.07C36.6914 150.07 37.8125 149.605 37.8125 148.84C37.8125 148.047 36.6914 147.596 34.873 147.596ZM44.8809 139.57C46.7949 139.584 48.1484 140.732 48.1484 142.428C48.1484 143.959 47.041 145.046 45.4141 145.23V147.309C46.6172 147.247 47.8408 147.145 48.9961 146.967L49.0781 147.76C46.3027 148.279 43.3086 148.293 41.1211 148.293L40.9707 147.391C41.9619 147.391 43.1172 147.391 44.334 147.35V145.23C42.707 145.039 41.5859 143.959 41.5996 142.428C41.5859 140.732 42.9668 139.584 44.8809 139.57ZM44.8809 140.514C43.582 140.514 42.6387 141.293 42.6523 142.428C42.6387 143.562 43.582 144.355 44.8809 144.342C46.166 144.355 47.0957 143.562 47.0957 142.428C47.0957 141.293 46.166 140.514 44.8809 140.514ZM50.8691 138.777V150.959H49.8027V138.777H50.8691ZM59.7422 140.131V140.76C59.7285 141.717 59.7285 143.33 59.3867 145.586L58.3066 145.49C58.6348 143.453 58.6621 141.977 58.6621 141.006H53.5625V140.131H59.7422ZM56.5566 143.604V147.295C57.9033 147.247 59.2842 147.158 60.5488 147.008L60.6035 147.814C58.0469 148.211 55.1895 148.266 53.0156 148.252L52.8789 147.363C53.6787 147.356 54.5674 147.35 55.5039 147.322V143.604H56.5566ZM62.3809 138.777V143.863H64.3496V144.793H62.3809V150.932H61.3145V138.777H62.3809Z" fill="#8C8C8C"/>
<path d="M26.7383 163.791V172.705H25.6719V163.791H26.7383ZM27.1211 174.77V175.672H18.8906V171.885H19.957V174.77H27.1211ZM21.0098 165.691C20.9961 167.537 22.2676 169.205 24.0723 169.861L23.5117 170.723C22.1035 170.183 21.0098 169.089 20.4766 167.688C19.9365 169.178 18.8291 170.374 17.4141 170.941L16.8262 170.107C18.6719 169.396 19.916 167.605 19.916 165.691V164.475H21.0098V165.691ZM38.8789 163.791V171.092H37.7988V169.451H34.5723V168.562H37.7988V166.922H34.6953C33.8955 168.877 32.0156 170.292 29.418 171.064L28.9668 170.217C31.9062 169.342 33.7314 167.701 33.957 165.596H29.582V164.693H35.1191C35.1191 165.172 35.0645 165.63 34.9688 166.061H37.7988V163.791H38.8789ZM34.9004 171.215C37.3613 171.215 38.9473 172.09 38.9473 173.539C38.9473 175.002 37.3613 175.877 34.9004 175.877C32.4121 175.877 30.8398 175.002 30.8398 173.539C30.8398 172.09 32.4121 171.215 34.9004 171.215ZM34.9004 172.076C33.0684 172.062 31.8926 172.623 31.8926 173.539C31.8926 174.455 33.0684 175.002 34.9004 175.002C36.7051 175.002 37.8672 174.455 37.8809 173.539C37.8672 172.623 36.7051 172.062 34.9004 172.076ZM47.6426 165.131V165.76C47.6289 166.717 47.6289 168.33 47.2871 170.586L46.207 170.49C46.5352 168.453 46.5625 166.977 46.5625 166.006H41.4629V165.131H47.6426ZM44.457 168.604V172.295C45.8037 172.247 47.1846 172.158 48.4492 172.008L48.5039 172.814C45.9473 173.211 43.0898 173.266 40.916 173.252L40.7793 172.363C41.5791 172.356 42.4678 172.35 43.4043 172.322V168.604H44.457ZM50.2812 163.777V168.863H52.25V169.793H50.2812V175.932H49.2148V163.777H50.2812Z" fill="#8C8C8C"/>
<defs>
<filter id="filter0_d_89_3724" x="0.419922" y="0.858398" width="274.58" height="192.931" filterUnits="userSpaceOnUse" color-interpolation-filters="sRGB">
<feFlood flood-opacity="0" result="BackgroundImageFix"/>
<feColorMatrix in="SourceAlpha" type="matrix" values="0 0 0 0 0 0 0 0 0 0 0 0 0 0 0 0 0 0 127 0" result="hardAlpha"/>
<feOffset dy="2"/>
<feGaussianBlur stdDeviation="1"/>
<feComposite in2="hardAlpha" operator="out"/>
<feColorMatrix type="matrix" values="0 0 0 0 0 0 0 0 0 0 0 0 0 0 0 0 0 0 0.1 0"/>
<feBlend mode="normal" in2="BackgroundImageFix" result="effect1_dropShadow_89_3724"/>
<feBlend mode="normal" in="SourceGraphic" in2="effect1_dropShadow_89_3724" result="shape"/>
</filter>
</defs>
</svg>
