<svg width="258" height="51" viewBox="0 0 258 51" fill="none" xmlns="http://www.w3.org/2000/svg">
<path d="M39.6885 0.855591L38.084 9.70618H18.2783L16.2646 21.4825H35.9541L34.3496 30.3322H14.751L11.5098 49.2843H0.208008L8.49023 0.855591H39.6885Z" fill="#FF7200"/>
<path d="M168.975 0.855591L167.37 9.70618H147.655L145.784 20.6466H162.48L161.057 29.4962H144.271L142.4 40.4347H162.481L160.877 49.2853H130.156V49.2843H129.584L137.867 0.855591H168.975Z" fill="#FF7200"/>
<path d="M225.633 44.7665L232.755 7.05024L246.689 7.05025L239.567 44.7665L225.633 44.7665Z" fill="#FF7200"/>
<path d="M254.107 32.4635L214.964 32.4635L218.21 19.3534L257.353 19.3534L254.107 32.4635Z" fill="#FF7200"/>
<path d="M38.6093 24.2028C42.2353 9.91637 59.3957 10.4064 65.4843 14.3258C70.8749 17.7964 69.7192 23.3572 69.3788 26.3542L65.4843 49.3083H56.3475L56.9696 45.3581C45.4656 54.75 35.4593 49.3146 34.3886 44.2712C31.0033 28.3247 53.6591 26.4429 57.2313 26.821C60.0884 27.1235 60.2229 24.9817 60.163 24.2028C60.0647 22.9282 58.8183 20.3293 54.6171 20.1276C50.4159 19.926 48.8329 22.7602 48.5663 24.2028H38.6093ZM58.328 32.7995C55.425 33.0387 49.6245 33.3431 46.1483 36.1706C43.213 38.5582 43.4039 44.0828 50.3573 42.2995C55.5351 40.9713 58.0888 36.0374 58.328 32.7995Z" fill="#FF7200"/>
<path d="M104.946 23.7893H95.6528C94.0478 19.2666 90.3936 19.0413 86.5364 20.0057C82.6792 20.97 82.2179 27.3689 91.7502 27.9095C102.971 28.5459 103.447 35.3442 103.107 37.8935C102.9 39.4461 100.517 51.0967 84.4309 50.5708C71.5617 50.15 69.8504 42.2844 70.6543 38.5733H80.1221C82.0068 46.0248 94.2628 43.7807 92.6548 38.5733C91.3821 34.4519 88.3653 35.5922 81.1828 34.4519C75.3761 33.53 71.7229 25.7117 76.3233 18.8363C81.3972 11.2529 90.0405 11.1206 97.4581 12.995C105.361 14.992 104.771 20.7357 104.946 23.7893Z" fill="#FF7200"/>
<path d="M124.15 12.6323H131.259L130.078 21.4819H122.547L119.066 40.6978L119.014 40.6958C119.013 40.6985 119.013 40.7019 119.013 40.7046C118.509 43.49 124.425 41.9115 125.834 41.8188L124.675 49.2202C123.516 49.8147 119.801 50.6497 114.802 49.7661C109.047 48.7489 108.919 43.1851 109.449 40.4536C109.455 40.4517 109.46 40.4497 109.466 40.4478L112.465 21.4819H107.485L108.666 12.6323H113.865L115.168 4.39209H125.643L124.15 12.6323Z" fill="#FF7200"/>
<path d="M195.838 0.857544C204.02 0.857544 210.653 7.49061 210.653 15.673V16.7589C210.653 24.5729 204.604 30.9732 196.933 31.5333L203.627 49.2843H192.325L185.647 31.5743H179.475L176.445 49.2863H165.143L173.426 0.857544H195.838ZM181.049 21.4728H193.332C196.315 21.4727 198.734 19.0539 198.734 16.0704C198.734 13.087 196.315 10.6682 193.332 10.6681H182.951L181.049 21.4728Z" fill="#FF7200"/>
</svg>
