<svg width="22" height="29" viewBox="0 0 22 29" fill="none" xmlns="http://www.w3.org/2000/svg">
<path d="M10.874 0.421448C13.6505 0.421557 16.3131 1.52457 18.2764 3.48785C20.2396 5.45114 21.3427 8.11371 21.3428 10.8902C21.3428 17.0806 11.8502 28.1152 11.4424 28.5836C11.3708 28.6635 11.2825 28.7273 11.1846 28.7711C11.0868 28.8147 10.9811 28.8374 10.874 28.8375C10.7668 28.8375 10.6604 28.8148 10.5625 28.7711C10.4646 28.7273 10.3772 28.6634 10.3057 28.5836C9.90185 28.1199 0.404297 17.082 0.404297 10.8902C0.404402 8.11375 1.50747 5.45113 3.4707 3.48785C5.43408 1.52448 8.09739 0.421448 10.874 0.421448Z" fill="#FF7200"/>
<rect x="12.5781" y="4.85342" width="11.2639" height="3.40971" transform="rotate(90 12.5781 4.85342)" fill="white"/>
<rect x="16.5059" y="12.1902" width="11.2639" height="3.40971" transform="rotate(-180 16.5059 12.1902)" fill="white"/>
</svg>
