<svg width="26" height="24" viewBox="0 0 26 24" fill="none" xmlns="http://www.w3.org/2000/svg">
<path d="M18.1025 0.127991C19.2018 0.128187 20.0927 1.01892 20.0928 2.11823V6.12897H23.0352C24.1346 6.12897 25.0263 7.01982 25.0264 8.1192V22.0137C25.0264 23.1132 24.1346 24.0049 23.0352 24.0049H2.71387C1.61439 24.0049 0.722656 23.1132 0.722656 22.0137V8.1192C0.722771 7.01982 1.61446 6.12897 2.71387 6.12897H5.57422V2.11823C5.57429 1.0188 6.46599 0.127991 7.56543 0.127991H18.1025Z" fill="#FF7200"/>
<rect x="13.7988" y="2.70721" width="6.11915" height="1.85233" transform="rotate(90 13.7988 2.70721)" fill="white"/>
<rect x="15.9316" y="6.69269" width="6.11915" height="1.85233" transform="rotate(-180 15.9316 6.69269)" fill="white"/>
<rect x="4.32031" y="13.3455" width="4.72754" height="2.68835" rx="0.497697" fill="white"/>
<rect x="16.6973" y="13.3454" width="4.72754" height="2.68835" rx="0.497697" fill="white"/>
<rect x="10.5117" y="13.3455" width="4.72754" height="2.68835" rx="0.497697" fill="white"/>
<rect x="4.32031" y="18.1525" width="4.72754" height="2.68835" rx="0.497697" fill="white"/>
<rect x="16.6973" y="18.1525" width="4.72754" height="2.68835" rx="0.497697" fill="white"/>
<rect x="10.5117" y="18.1525" width="4.72754" height="2.68835" rx="0.497697" fill="white"/>
</svg>
