<svg width="22" height="29" viewBox="0 0 22 29" fill="none" xmlns="http://www.w3.org/2000/svg">
<path d="M10.874 0.536682C13.6506 0.53673 16.313 1.63981 18.2764 3.60309C20.2397 5.56638 21.3427 8.22892 21.3428 11.0054C21.3428 17.1965 11.8485 28.2325 11.4424 28.6988C11.371 28.7786 11.2833 28.8425 11.1855 28.8863C11.0877 28.93 10.9812 28.9527 10.874 28.9527C10.7668 28.9527 10.6604 28.9301 10.5625 28.8863C10.4646 28.8425 10.3772 28.7787 10.3057 28.6988C9.90185 28.2352 0.404297 17.1973 0.404297 11.0054C0.40439 8.22903 1.50755 5.56636 3.4707 3.60309C5.43408 1.63971 8.09739 0.536682 10.874 0.536682Z" fill="#D63C1E"/>
<path d="M6.87342 12.7795V7.88086H10.3715V8.92285H8.15899V9.80921H10.1888V10.8512H8.15899V11.7376H10.3647V12.7795H6.87342ZM11.5292 12.7795V7.88086H13.6132C14.7093 7.88086 15.4265 8.50335 15.4265 9.53857C15.4265 10.2152 15.1153 10.6956 14.5875 10.9459L15.5889 12.7795H14.1883L13.3223 11.1489H12.8148V12.7795H11.5292ZM12.8148 10.1408H13.3155C13.8026 10.1408 14.0801 9.96483 14.0801 9.53857C14.0801 9.10553 13.8026 8.90932 13.3155 8.90932H12.8148V10.1408Z" fill="white"/>
<rect x="4.25618" y="6.32087" width="13.2341" height="9.14498" rx="1.20276" stroke="white" stroke-width="0.481105"/>
</svg>
