<svg width="22" height="29" viewBox="0 0 22 29" fill="none" xmlns="http://www.w3.org/2000/svg">
<path d="M10.874 0.305725C13.6504 0.305773 16.3131 1.40901 18.2764 3.37213C20.2397 5.33551 21.3428 7.99882 21.3428 10.7755C21.3427 16.9673 11.8462 28.0052 11.4424 28.4688C11.3709 28.5486 11.2833 28.6126 11.1855 28.6563C11.0877 28.7001 10.9812 28.7227 10.874 28.7227C10.7668 28.7227 10.6604 28.7001 10.5625 28.6563C10.4647 28.6126 10.3772 28.5486 10.3057 28.4688C9.90185 28.0052 0.4044 16.9673 0.404297 10.7755C0.404297 7.99882 1.50733 5.33551 3.4707 3.37213C5.43408 1.40878 8.09741 0.305725 10.874 0.305725Z" fill="#FF7200"/>
<circle cx="10.8754" cy="9.98699" r="5.2484" fill="white"/>
</svg>
