<svg width="22" height="30" viewBox="0 0 22 30" fill="none" xmlns="http://www.w3.org/2000/svg">
<path d="M11.4463 0.756348C14.2228 0.756395 16.8853 1.85947 18.8486 3.82275C20.8119 5.78605 21.9149 8.44859 21.915 11.2251C21.915 17.4162 12.4207 28.4522 12.0146 28.9185C11.9432 28.9983 11.8556 29.0622 11.7578 29.106C11.6599 29.1497 11.5535 29.1723 11.4463 29.1724C11.339 29.1724 11.2327 29.1497 11.1348 29.106C11.0369 29.0622 10.9494 28.9983 10.8779 28.9185C10.4741 28.4548 0.976563 17.4169 0.976562 11.2251C0.976656 8.44869 2.07981 5.78603 4.04297 3.82275C6.00635 1.85938 8.66965 0.756348 11.4463 0.756348Z" fill="#D63C1E"/>
<path d="M7.44569 12.9993V8.10059H10.9438V9.14257H8.73125V10.0289H10.7611V11.0709H8.73125V11.9573H10.937V12.9993H7.44569ZM12.1015 12.9993V8.10059H14.1855C15.2816 8.10059 15.9988 8.72307 15.9988 9.75829C15.9988 10.4349 15.6875 10.9153 15.1598 11.1656L16.1612 12.9993H14.7606L13.8945 11.3686H13.3871V12.9993H12.1015ZM13.3871 10.3605H13.8878C14.3749 10.3605 14.6523 10.1846 14.6523 9.75829C14.6523 9.32526 14.3749 9.12904 13.8878 9.12904H13.3871V10.3605Z" fill="white"/>
<rect x="4.82844" y="6.5406" width="13.2341" height="9.14498" rx="1.20276" stroke="white" stroke-width="0.481105"/>
</svg>
