<svg width="22" height="30" viewBox="0 0 22 30" fill="none" xmlns="http://www.w3.org/2000/svg">
<path d="M11.1592 0.925781C13.9357 0.92589 16.5982 2.02891 18.5615 3.99219C20.5248 5.95547 21.6278 8.61804 21.6279 11.3945C21.6279 17.585 12.1354 28.6196 11.7275 29.0879C11.656 29.1678 11.5677 29.2316 11.4697 29.2754C11.372 29.3191 11.2663 29.3417 11.1592 29.3418C11.0519 29.3418 10.9456 29.3192 10.8477 29.2754C10.7498 29.2316 10.6623 29.1678 10.5908 29.0879C10.187 28.6243 0.689453 17.5864 0.689453 11.3945C0.689558 8.61808 1.79263 5.95546 3.75586 3.99219C5.71924 2.02881 8.38254 0.925781 11.1592 0.925781Z" fill="#FF7200"/>
<rect x="12.8633" y="5.35742" width="11.2639" height="3.40971" transform="rotate(90 12.8633 5.35742)" fill="white"/>
<rect x="16.791" y="12.6934" width="11.2639" height="3.40971" transform="rotate(-180 16.791 12.6934)" fill="white"/>
</svg>
