<svg width="22" height="30" viewBox="0 0 22 30" fill="none" xmlns="http://www.w3.org/2000/svg">
<path d="M11.4307 0.717987C14.2071 0.718035 16.8697 1.82128 18.833 3.78439C20.7964 5.74777 21.8994 8.41108 21.8994 11.1877C21.8993 17.3796 12.4028 28.4174 11.999 28.8811C11.9276 28.9609 11.84 29.0248 11.7422 29.0686C11.6443 29.1123 11.5379 29.135 11.4307 29.135C11.3234 29.135 11.2171 29.1123 11.1191 29.0686C11.0213 29.0248 10.9338 28.9609 10.8623 28.8811C10.4585 28.4174 0.961041 17.3796 0.960938 11.1877C0.960938 8.41108 2.06397 5.74777 4.02734 3.78439C5.99072 1.82104 8.65405 0.717987 11.4307 0.717987Z" fill="#479DFF"/>
<circle cx="11.432" cy="10.3993" r="5.2484" fill="white"/>
</svg>
