<svg width="22" height="30" viewBox="0 0 22 30" fill="none" xmlns="http://www.w3.org/2000/svg">
<path d="M11.3955 0.701172C14.1719 0.70122 16.8345 1.80446 18.7979 3.76758C20.7612 5.73096 21.8643 8.39426 21.8643 11.1709C21.8642 17.3628 12.3677 28.4006 11.9639 28.8643C11.8924 28.9441 11.8048 29.008 11.707 29.0518C11.6092 29.0955 11.5027 29.1181 11.3955 29.1182C11.2882 29.1182 11.1819 29.0955 11.084 29.0518C10.9862 29.008 10.8987 28.9441 10.8271 28.8643C10.4233 28.4006 0.925885 17.3628 0.925781 11.1709C0.925781 8.39426 2.02881 5.73096 3.99219 3.76758C5.95556 1.80423 8.61889 0.701172 11.3955 0.701172Z" fill="white"/>
<circle cx="11.3968" cy="10.3832" r="5.2484" fill="#FF9901"/>
</svg>
