<svg width="17" height="17" viewBox="0 0 17 17" fill="none" xmlns="http://www.w3.org/2000/svg">
<path d="M12.0303 0.101135C12.773 0.101171 13.375 0.703104 13.375 1.44586V4.15485H15.3633C16.1058 4.15501 16.7078 4.75705 16.708 5.49957V14.8873C16.7078 15.6297 16.1058 16.2318 15.3633 16.232H1.63379C0.891258 16.2319 0.28932 15.6298 0.289062 14.8873V5.49957C0.289246 4.75701 0.891212 4.15495 1.63379 4.15485H3.56641V1.44586C3.56641 0.703228 4.16855 0.101373 4.91113 0.101135H12.0303Z" fill="#FF7200"/>
<rect x="9.125" y="1.84357" width="4.13394" height="1.25139" transform="rotate(90 9.125 1.84357)" fill="white"/>
<rect x="10.5645" y="4.53607" width="4.13394" height="1.25139" transform="rotate(-180 10.5645 4.53607)" fill="white"/>
<rect x="2.71875" y="9.03052" width="3.1938" height="1.81618" rx="0.336231" fill="white"/>
<rect x="11.082" y="9.03046" width="3.1938" height="1.81618" rx="0.336231" fill="white"/>
<rect x="6.90234" y="9.03052" width="3.1938" height="1.81618" rx="0.336231" fill="white"/>
<rect x="2.71875" y="12.278" width="3.1938" height="1.81618" rx="0.336231" fill="white"/>
<rect x="11.082" y="12.278" width="3.1938" height="1.81618" rx="0.336231" fill="white"/>
<rect x="6.90234" y="12.278" width="3.1938" height="1.81618" rx="0.336231" fill="white"/>
</svg>
