<svg width="13" height="17" viewBox="0 0 13 17" fill="none" xmlns="http://www.w3.org/2000/svg">
<path d="M6.41895 0.0884399C7.99757 0.0884399 9.51167 0.716322 10.6279 1.83258C11.744 2.94873 12.371 4.46217 12.3711 6.04059C12.3711 9.5609 6.97177 15.8366 6.74219 16.1002C6.70164 16.1454 6.65213 16.1817 6.59668 16.2066C6.541 16.2315 6.47993 16.2447 6.41895 16.2447C6.35806 16.2446 6.29777 16.2314 6.24219 16.2066C6.18659 16.1817 6.13633 16.1455 6.0957 16.1002C5.86287 15.8328 0.466797 9.55977 0.466797 6.04059C0.466899 4.46231 1.09407 2.94871 2.20996 1.83258C3.32615 0.716394 4.84043 0.0885213 6.41895 0.0884399Z" fill="#FF7200"/>
<circle cx="6.41947" cy="5.59263" r="2.98393" fill="white"/>
</svg>
