<svg width="32" height="32" viewBox="0 0 32 32" fill="none" xmlns="http://www.w3.org/2000/svg">
<circle cx="16.1689" cy="15.9583" r="15.3662" fill="#FF7200"/>
<path d="M25.2806 24.8679V22.5904C25.2806 21.3823 24.8007 20.2237 23.9465 19.3695C23.0923 18.5152 21.9337 18.0353 20.7256 18.0353H11.6156C10.4075 18.0353 9.24891 18.5152 8.39468 19.3695C7.54045 20.2237 7.06055 21.3823 7.06055 22.5904V24.8679" fill="white"/>
<path d="M16.1703 16.1586C18.6859 16.1586 20.7253 14.1192 20.7253 11.6035C20.7253 9.08788 18.6859 7.04852 16.1703 7.04852C13.6546 7.04852 11.6152 9.08788 11.6152 11.6035C11.6152 14.1192 13.6546 16.1586 16.1703 16.1586Z" fill="white"/>
</svg>
